<mxfile host="app.diagrams.net" agent="Mozilla/5.0 (Windows NT 10.0; Win64; x64) AppleWebKit/537.36 (KHTML, like Gecko) Chrome/131.0.0.0 Safari/537.36" version="25.0.3">
  <diagram name="Страница — 1" id="x6fVxi3xLpJturnoay6H">
    <mxGraphModel dx="3222" dy="2111" grid="1" gridSize="10" guides="1" tooltips="1" connect="1" arrows="1" fold="1" page="1" pageScale="1" pageWidth="827" pageHeight="1169" math="0" shadow="0">
      <root>
        <mxCell id="0" />
        <mxCell id="1" parent="0" />
        <mxCell id="1e7CD2xe3Tzz0ckX28uI-1" style="edgeStyle=orthogonalEdgeStyle;rounded=0;orthogonalLoop=1;jettySize=auto;html=1;exitX=0.5;exitY=1;exitDx=0;exitDy=0;" edge="1" parent="1" source="1e7CD2xe3Tzz0ckX28uI-28" target="1e7CD2xe3Tzz0ckX28uI-68">
          <mxGeometry relative="1" as="geometry" />
        </mxCell>
        <mxCell id="1e7CD2xe3Tzz0ckX28uI-2" style="edgeStyle=orthogonalEdgeStyle;rounded=0;orthogonalLoop=1;jettySize=auto;html=1;entryX=0.5;entryY=0;entryDx=0;entryDy=0;" edge="1" parent="1" source="1e7CD2xe3Tzz0ckX28uI-5" target="1e7CD2xe3Tzz0ckX28uI-15">
          <mxGeometry relative="1" as="geometry" />
        </mxCell>
        <mxCell id="1e7CD2xe3Tzz0ckX28uI-3" value="ввод логина и пароля" style="edgeLabel;html=1;align=center;verticalAlign=middle;resizable=0;points=[];" vertex="1" connectable="0" parent="1e7CD2xe3Tzz0ckX28uI-2">
          <mxGeometry x="-0.12" y="1" relative="1" as="geometry">
            <mxPoint x="59" as="offset" />
          </mxGeometry>
        </mxCell>
        <mxCell id="1e7CD2xe3Tzz0ckX28uI-4" style="edgeStyle=orthogonalEdgeStyle;rounded=0;orthogonalLoop=1;jettySize=auto;html=1;entryX=0.5;entryY=0;entryDx=0;entryDy=0;exitX=0;exitY=0.25;exitDx=0;exitDy=0;" edge="1" parent="1" source="1e7CD2xe3Tzz0ckX28uI-5" target="1e7CD2xe3Tzz0ckX28uI-41">
          <mxGeometry relative="1" as="geometry" />
        </mxCell>
        <mxCell id="1e7CD2xe3Tzz0ckX28uI-5" value="Ожидание входа в систему" style="rounded=1;whiteSpace=wrap;html=1;" vertex="1" parent="1">
          <mxGeometry x="440" y="80" width="120" height="40" as="geometry" />
        </mxCell>
        <mxCell id="1e7CD2xe3Tzz0ckX28uI-6" style="edgeStyle=orthogonalEdgeStyle;rounded=0;orthogonalLoop=1;jettySize=auto;html=1;entryX=0.5;entryY=0;entryDx=0;entryDy=0;" edge="1" parent="1" source="1e7CD2xe3Tzz0ckX28uI-10" target="1e7CD2xe3Tzz0ckX28uI-5">
          <mxGeometry relative="1" as="geometry" />
        </mxCell>
        <mxCell id="1e7CD2xe3Tzz0ckX28uI-7" value="нажатие на кнопку войти" style="edgeLabel;html=1;align=center;verticalAlign=middle;resizable=0;points=[];" vertex="1" connectable="0" parent="1e7CD2xe3Tzz0ckX28uI-6">
          <mxGeometry x="-0.072" y="-1" relative="1" as="geometry">
            <mxPoint as="offset" />
          </mxGeometry>
        </mxCell>
        <mxCell id="1e7CD2xe3Tzz0ckX28uI-8" style="edgeStyle=orthogonalEdgeStyle;rounded=0;orthogonalLoop=1;jettySize=auto;html=1;entryX=0.5;entryY=0;entryDx=0;entryDy=0;" edge="1" parent="1" source="1e7CD2xe3Tzz0ckX28uI-10" target="1e7CD2xe3Tzz0ckX28uI-32">
          <mxGeometry relative="1" as="geometry" />
        </mxCell>
        <mxCell id="1e7CD2xe3Tzz0ckX28uI-9" value="нажатие на кнопку зарегистрироваться" style="edgeLabel;html=1;align=center;verticalAlign=middle;resizable=0;points=[];" vertex="1" connectable="0" parent="1e7CD2xe3Tzz0ckX28uI-8">
          <mxGeometry x="-0.0525" y="-4" relative="1" as="geometry">
            <mxPoint as="offset" />
          </mxGeometry>
        </mxCell>
        <mxCell id="1e7CD2xe3Tzz0ckX28uI-10" value="" style="ellipse;whiteSpace=wrap;html=1;aspect=fixed;" vertex="1" parent="1">
          <mxGeometry x="490" y="10" width="20" height="20" as="geometry" />
        </mxCell>
        <mxCell id="1e7CD2xe3Tzz0ckX28uI-11" style="edgeStyle=orthogonalEdgeStyle;rounded=0;orthogonalLoop=1;jettySize=auto;html=1;entryX=0;entryY=0.5;entryDx=0;entryDy=0;exitX=0;exitY=0.5;exitDx=0;exitDy=0;" edge="1" parent="1" source="1e7CD2xe3Tzz0ckX28uI-15" target="1e7CD2xe3Tzz0ckX28uI-5">
          <mxGeometry relative="1" as="geometry">
            <mxPoint x="430" y="200" as="sourcePoint" />
            <mxPoint x="370" y="130" as="targetPoint" />
          </mxGeometry>
        </mxCell>
        <mxCell id="1e7CD2xe3Tzz0ckX28uI-12" value="[неправильный логин&lt;div&gt;&amp;nbsp;или пароль&lt;span style=&quot;background-color: rgb(251, 251, 251); text-wrap: wrap;&quot;&gt;]&lt;/span&gt;&lt;/div&gt;" style="edgeLabel;html=1;align=center;verticalAlign=middle;resizable=0;points=[];" vertex="1" connectable="0" parent="1e7CD2xe3Tzz0ckX28uI-11">
          <mxGeometry x="0.0769" y="4" relative="1" as="geometry">
            <mxPoint x="4" y="6" as="offset" />
          </mxGeometry>
        </mxCell>
        <mxCell id="1e7CD2xe3Tzz0ckX28uI-13" style="edgeStyle=orthogonalEdgeStyle;rounded=0;orthogonalLoop=1;jettySize=auto;html=1;entryX=0.5;entryY=0;entryDx=0;entryDy=0;" edge="1" parent="1" source="1e7CD2xe3Tzz0ckX28uI-15" target="1e7CD2xe3Tzz0ckX28uI-44">
          <mxGeometry relative="1" as="geometry">
            <mxPoint x="500" y="310" as="targetPoint" />
          </mxGeometry>
        </mxCell>
        <mxCell id="1e7CD2xe3Tzz0ckX28uI-14" value="[логин и пароль правильные&lt;span style=&quot;background-color: rgb(251, 251, 251); text-wrap: wrap;&quot;&gt;]&lt;/span&gt;" style="edgeLabel;html=1;align=center;verticalAlign=middle;resizable=0;points=[];" vertex="1" connectable="0" parent="1e7CD2xe3Tzz0ckX28uI-13">
          <mxGeometry x="0.15" y="-1" relative="1" as="geometry">
            <mxPoint x="21" y="-6" as="offset" />
          </mxGeometry>
        </mxCell>
        <mxCell id="1e7CD2xe3Tzz0ckX28uI-15" value="Проверка логина и пароля" style="rounded=1;whiteSpace=wrap;html=1;" vertex="1" parent="1">
          <mxGeometry x="440" y="200" width="120" height="40" as="geometry" />
        </mxCell>
        <mxCell id="1e7CD2xe3Tzz0ckX28uI-16" style="edgeStyle=orthogonalEdgeStyle;rounded=0;orthogonalLoop=1;jettySize=auto;html=1;exitX=0.5;exitY=1;exitDx=0;exitDy=0;entryX=0.5;entryY=0;entryDx=0;entryDy=0;" edge="1" parent="1" source="1e7CD2xe3Tzz0ckX28uI-21" target="1e7CD2xe3Tzz0ckX28uI-26">
          <mxGeometry relative="1" as="geometry" />
        </mxCell>
        <mxCell id="1e7CD2xe3Tzz0ckX28uI-17" value="&lt;font style=&quot;vertical-align: inherit;&quot;&gt;&lt;font style=&quot;vertical-align: inherit;&quot;&gt;&lt;font style=&quot;vertical-align: inherit;&quot;&gt;&lt;font style=&quot;vertical-align: inherit;&quot;&gt;дата и время ввода, приглашенных пользователей&amp;nbsp;&lt;/font&gt;&lt;/font&gt;&lt;/font&gt;&lt;/font&gt;" style="edgeLabel;html=1;align=center;verticalAlign=middle;resizable=0;points=[];" vertex="1" connectable="0" parent="1e7CD2xe3Tzz0ckX28uI-16">
          <mxGeometry x="-0.05" y="-1" relative="1" as="geometry">
            <mxPoint x="50" y="5" as="offset" />
          </mxGeometry>
        </mxCell>
        <mxCell id="1e7CD2xe3Tzz0ckX28uI-20" style="edgeStyle=orthogonalEdgeStyle;rounded=0;orthogonalLoop=1;jettySize=auto;html=1;exitX=1;exitY=0.5;exitDx=0;exitDy=0;" edge="1" parent="1" target="1e7CD2xe3Tzz0ckX28uI-41" source="1e7CD2xe3Tzz0ckX28uI-44">
          <mxGeometry relative="1" as="geometry">
            <mxPoint x="660" y="450" as="sourcePoint" />
            <mxPoint x="355" y="243" as="targetPoint" />
            <Array as="points">
              <mxPoint x="538" y="345" />
              <mxPoint x="538" y="340" />
              <mxPoint x="630" y="340" />
              <mxPoint x="630" y="-50" />
              <mxPoint x="355" y="-50" />
            </Array>
          </mxGeometry>
        </mxCell>
        <mxCell id="1e7CD2xe3Tzz0ckX28uI-21" value="&lt;font style=&quot;vertical-align: inherit;&quot;&gt;&lt;font style=&quot;vertical-align: inherit;&quot;&gt;&lt;font style=&quot;vertical-align: inherit;&quot;&gt;&lt;font style=&quot;vertical-align: inherit;&quot;&gt;Страница с информацией, которую необходимо заполнить для создания конференции&lt;/font&gt;&lt;/font&gt;&lt;/font&gt;&lt;/font&gt;" style="rounded=1;whiteSpace=wrap;html=1;" vertex="1" parent="1">
          <mxGeometry x="490" y="430" width="180" height="60" as="geometry" />
        </mxCell>
        <mxCell id="1e7CD2xe3Tzz0ckX28uI-22" style="edgeStyle=orthogonalEdgeStyle;rounded=0;orthogonalLoop=1;jettySize=auto;html=1;entryX=0.5;entryY=0;entryDx=0;entryDy=0;" edge="1" parent="1" source="1e7CD2xe3Tzz0ckX28uI-26" target="1e7CD2xe3Tzz0ckX28uI-28">
          <mxGeometry relative="1" as="geometry" />
        </mxCell>
        <mxCell id="1e7CD2xe3Tzz0ckX28uI-24" style="edgeStyle=orthogonalEdgeStyle;rounded=0;orthogonalLoop=1;jettySize=auto;html=1;exitX=1;exitY=0.5;exitDx=0;exitDy=0;entryX=1;entryY=0.5;entryDx=0;entryDy=0;" edge="1" parent="1" source="1e7CD2xe3Tzz0ckX28uI-26" target="1e7CD2xe3Tzz0ckX28uI-21">
          <mxGeometry relative="1" as="geometry">
            <Array as="points">
              <mxPoint x="800" y="582" />
              <mxPoint x="800" y="466" />
            </Array>
          </mxGeometry>
        </mxCell>
        <mxCell id="1e7CD2xe3Tzz0ckX28uI-26" value="&lt;font style=&quot;vertical-align: inherit;&quot;&gt;&lt;font style=&quot;vertical-align: inherit;&quot;&gt;Проверка корректности введенных данных&lt;/font&gt;&lt;/font&gt;" style="rounded=1;whiteSpace=wrap;html=1;" vertex="1" parent="1">
          <mxGeometry x="520" y="562" width="120" height="40" as="geometry" />
        </mxCell>
        <mxCell id="1e7CD2xe3Tzz0ckX28uI-28" value="&lt;font style=&quot;vertical-align: inherit;&quot;&gt;&lt;font style=&quot;vertical-align: inherit;&quot;&gt;Создание идентификатора конференции&lt;/font&gt;&lt;/font&gt;" style="rounded=1;whiteSpace=wrap;html=1;" vertex="1" parent="1">
          <mxGeometry x="540" y="738.5" width="120" height="40" as="geometry" />
        </mxCell>
        <mxCell id="1e7CD2xe3Tzz0ckX28uI-29" style="edgeStyle=orthogonalEdgeStyle;rounded=0;orthogonalLoop=1;jettySize=auto;html=1;entryX=0.5;entryY=0;entryDx=0;entryDy=0;exitX=0;exitY=0.5;exitDx=0;exitDy=0;" edge="1" parent="1" source="1e7CD2xe3Tzz0ckX28uI-73" target="1e7CD2xe3Tzz0ckX28uI-37">
          <mxGeometry relative="1" as="geometry">
            <Array as="points">
              <mxPoint x="90" y="160" />
              <mxPoint x="-40" y="160" />
            </Array>
          </mxGeometry>
        </mxCell>
        <mxCell id="1e7CD2xe3Tzz0ckX28uI-30" value="ввод логина, пароля&amp;nbsp;&lt;div&gt;и информации&lt;/div&gt;&lt;div&gt;&amp;nbsp;о пользователе&lt;/div&gt;" style="edgeLabel;html=1;align=center;verticalAlign=middle;resizable=0;points=[];" vertex="1" connectable="0" parent="1e7CD2xe3Tzz0ckX28uI-29">
          <mxGeometry x="-0.1133" y="4" relative="1" as="geometry">
            <mxPoint x="-5" y="-24" as="offset" />
          </mxGeometry>
        </mxCell>
        <mxCell id="1e7CD2xe3Tzz0ckX28uI-31" style="edgeStyle=orthogonalEdgeStyle;rounded=0;orthogonalLoop=1;jettySize=auto;html=1;exitX=0.25;exitY=1;exitDx=0;exitDy=0;entryX=1;entryY=0.5;entryDx=0;entryDy=0;" edge="1" parent="1" source="1e7CD2xe3Tzz0ckX28uI-32" target="1e7CD2xe3Tzz0ckX28uI-73">
          <mxGeometry relative="1" as="geometry" />
        </mxCell>
        <mxCell id="1e7CD2xe3Tzz0ckX28uI-32" value="Ожидание регистрации" style="rounded=1;whiteSpace=wrap;html=1;" vertex="1" parent="1">
          <mxGeometry x="180" y="80" width="120" height="40" as="geometry" />
        </mxCell>
        <mxCell id="1e7CD2xe3Tzz0ckX28uI-33" style="edgeStyle=orthogonalEdgeStyle;rounded=0;orthogonalLoop=1;jettySize=auto;html=1;entryX=0.5;entryY=0;entryDx=0;entryDy=0;" edge="1" parent="1" source="1e7CD2xe3Tzz0ckX28uI-37" target="1e7CD2xe3Tzz0ckX28uI-39">
          <mxGeometry relative="1" as="geometry" />
        </mxCell>
        <mxCell id="1e7CD2xe3Tzz0ckX28uI-34" value="&lt;span style=&quot;color: rgba(0, 0, 0, 0); font-family: monospace; font-size: 0px; text-align: start; background-color: rgb(251, 251, 251);&quot;&gt;%3CmxGraphModel%3E%3Croot%3E%3CmxCell%20id%3D%220%22%2F%3E%3CmxCell%20id%3D%221%22%20parent%3D%220%22%2F%3E%3CmxCell%20id%3D%222%22%20value%3D%22%5B%D0%BB%D0%BE%D0%B3%D0%B8%D0%BD%20%D1%83%D0%B6%D0%B5%20%D0%B7%D0%B0%D0%BD%D1%8F%D1%82%20%D0%B8%D0%BB%D0%B8%20%D0%BD%D0%B5%20%D0%B2%D1%81%D0%B5%26lt%3Bdiv%26gt%3B%26amp%3Bnbsp%3B%D0%BE%D0%B1%D1%8F%D0%B7%D0%B0%D1%82%D0%B5%D0%BB%D1%8C%D0%BD%D1%8B%D0%B5%20%D0%BF%D0%BE%D0%BB%D1%8F%20%D0%B7%D0%B0%D0%BF%D0%BE%D0%BB%D0%BD%D0%B5%D0%BD%D1%8B%20%D0%B8%D0%BB%D0%B8%26lt%3B%2Fdiv%26gt%3B%26lt%3Bdiv%26gt%3B%26amp%3Bnbsp%3B%D0%BD%D0%B5%20%D0%B2%D1%81%D0%B5%20%D0%B7%D0%B0%D0%BF%D0%BE%D0%BB%D0%BD%D0%B5%D0%BD%D0%BD%D1%8B%D0%B5%20%D0%BF%D0%BE%D0%BB%D1%8F%26amp%3Bnbsp%3B%26lt%3B%2Fdiv%26gt%3B%26lt%3Bdiv%26gt%3B%D1%81%D0%BE%D0%B4%D0%B5%D1%80%D0%B6%D0%B0%D1%82%20%D0%B4%D0%BE%D0%BF%D1%83%D1%81%D1%82%D0%B8%D0%BC%D1%8B%D0%B5%20%D1%81%D0%B8%D0%BC%D0%B2%D0%BE%D0%BB%D1%8B%5D%26lt%3B%2Fdiv%26gt%3B%22%20style%3D%22edgeLabel%3Bhtml%3D1%3Balign%3Dcenter%3BverticalAlign%3Dmiddle%3Bresizable%3D0%3Bpoints%3D%5B%5D%3B%22%20vertex%3D%221%22%20connectable%3D%220%22%20parent%3D%221%22%3E%3CmxGeometry%20x%3D%22-190%22%20y%3D%22175.4001111108024%22%20as%3D%22geometry%22%2F%3E%3C%2FmxCell%3E%3C%2Froot%3E%3C%2FmxGraphModel%3E&lt;/span&gt;" style="edgeLabel;html=1;align=center;verticalAlign=middle;resizable=0;points=[];" vertex="1" connectable="0" parent="1e7CD2xe3Tzz0ckX28uI-33">
          <mxGeometry x="-0.0917" y="-2" relative="1" as="geometry">
            <mxPoint x="-28" y="3" as="offset" />
          </mxGeometry>
        </mxCell>
        <mxCell id="1e7CD2xe3Tzz0ckX28uI-35" style="edgeStyle=orthogonalEdgeStyle;rounded=0;orthogonalLoop=1;jettySize=auto;html=1;exitX=0;exitY=0.5;exitDx=0;exitDy=0;entryX=0;entryY=0.5;entryDx=0;entryDy=0;" edge="1" parent="1" source="1e7CD2xe3Tzz0ckX28uI-37" target="1e7CD2xe3Tzz0ckX28uI-75">
          <mxGeometry relative="1" as="geometry" />
        </mxCell>
        <mxCell id="1e7CD2xe3Tzz0ckX28uI-36" value="[логин уже занят или не все&lt;div&gt;&amp;nbsp;обязательные поля заполнены или&lt;/div&gt;&lt;div&gt;&amp;nbsp;не все заполненные поля&amp;nbsp;&lt;/div&gt;&lt;div&gt;содержат допустимые символы]&lt;/div&gt;" style="edgeLabel;html=1;align=center;verticalAlign=middle;resizable=0;points=[];" vertex="1" connectable="0" parent="1e7CD2xe3Tzz0ckX28uI-35">
          <mxGeometry x="0.0669" y="-3" relative="1" as="geometry">
            <mxPoint x="-53" y="34" as="offset" />
          </mxGeometry>
        </mxCell>
        <mxCell id="1e7CD2xe3Tzz0ckX28uI-37" value="&lt;font style=&quot;vertical-align: inherit;&quot;&gt;&lt;font style=&quot;vertical-align: inherit;&quot;&gt;Проверка свободы логина&amp;nbsp;&lt;/font&gt;&lt;/font&gt;&lt;div&gt;&lt;font style=&quot;vertical-align: inherit;&quot;&gt;&lt;font style=&quot;vertical-align: inherit;&quot;&gt;и корректность заполнения поля регистрации&lt;/font&gt;&lt;/font&gt;&lt;/div&gt;" style="rounded=1;whiteSpace=wrap;html=1;" vertex="1" parent="1">
          <mxGeometry x="-120" y="240" width="160" height="80" as="geometry" />
        </mxCell>
        <mxCell id="1e7CD2xe3Tzz0ckX28uI-38" style="edgeStyle=orthogonalEdgeStyle;rounded=0;orthogonalLoop=1;jettySize=auto;html=1;entryX=0;entryY=0.5;entryDx=0;entryDy=0;" edge="1" parent="1" source="1e7CD2xe3Tzz0ckX28uI-39" target="1e7CD2xe3Tzz0ckX28uI-44">
          <mxGeometry relative="1" as="geometry" />
        </mxCell>
        <mxCell id="1e7CD2xe3Tzz0ckX28uI-39" value="Создание аккаунта нового пользователя" style="rounded=1;whiteSpace=wrap;html=1;" vertex="1" parent="1">
          <mxGeometry x="180" y="320" width="120" height="40" as="geometry" />
        </mxCell>
        <mxCell id="1e7CD2xe3Tzz0ckX28uI-40" style="edgeStyle=orthogonalEdgeStyle;rounded=0;orthogonalLoop=1;jettySize=auto;html=1;entryX=0;entryY=0.5;entryDx=0;entryDy=0;" edge="1" parent="1" target="1e7CD2xe3Tzz0ckX28uI-41">
          <mxGeometry relative="1" as="geometry">
            <mxPoint x="300" y="99.58" as="sourcePoint" />
            <mxPoint x="360" y="100" as="targetPoint" />
          </mxGeometry>
        </mxCell>
        <mxCell id="1e7CD2xe3Tzz0ckX28uI-41" value="" style="ellipse;html=1;shape=endState;fillColor=#000000;strokeColor=#ff0000;" vertex="1" parent="1">
          <mxGeometry x="340" y="210" width="30" height="30" as="geometry" />
        </mxCell>
        <mxCell id="1e7CD2xe3Tzz0ckX28uI-42" style="edgeStyle=orthogonalEdgeStyle;rounded=0;orthogonalLoop=1;jettySize=auto;html=1;entryX=0.5;entryY=0;entryDx=0;entryDy=0;" edge="1" parent="1" source="1e7CD2xe3Tzz0ckX28uI-44" target="1e7CD2xe3Tzz0ckX28uI-21">
          <mxGeometry relative="1" as="geometry">
            <Array as="points">
              <mxPoint x="530" y="401" />
              <mxPoint x="580" y="401" />
            </Array>
          </mxGeometry>
        </mxCell>
        <mxCell id="1e7CD2xe3Tzz0ckX28uI-43" value="&lt;font style=&quot;vertical-align: inherit;&quot;&gt;&lt;font style=&quot;vertical-align: inherit;&quot;&gt;нажатие кнопки создания конференции&lt;/font&gt;&lt;/font&gt;" style="edgeLabel;html=1;align=center;verticalAlign=middle;resizable=0;points=[];" vertex="1" connectable="0" parent="1e7CD2xe3Tzz0ckX28uI-42">
          <mxGeometry x="-0.2963" y="-1" relative="1" as="geometry">
            <mxPoint x="38" y="18" as="offset" />
          </mxGeometry>
        </mxCell>
        <mxCell id="1e7CD2xe3Tzz0ckX28uI-44" value="&lt;font style=&quot;vertical-align: inherit;&quot;&gt;&lt;font style=&quot;vertical-align: inherit;&quot;&gt;Отображение главной страницы&amp;nbsp;&lt;/font&gt;&lt;/font&gt;" style="rounded=1;whiteSpace=wrap;html=1;" vertex="1" parent="1">
          <mxGeometry x="440" y="320" width="130" height="50" as="geometry" />
        </mxCell>
        <mxCell id="1e7CD2xe3Tzz0ckX28uI-45" value="Отображение информации о пользователе" style="rounded=1;whiteSpace=wrap;html=1;" vertex="1" parent="1">
          <mxGeometry x="290" y="430" width="130" height="50" as="geometry" />
        </mxCell>
        <mxCell id="1e7CD2xe3Tzz0ckX28uI-46" value="" style="endArrow=classic;html=1;rounded=0;exitX=0;exitY=1;exitDx=0;exitDy=0;" edge="1" parent="1" source="1e7CD2xe3Tzz0ckX28uI-44">
          <mxGeometry width="50" height="50" relative="1" as="geometry">
            <mxPoint x="540" y="410" as="sourcePoint" />
            <mxPoint x="360" y="430" as="targetPoint" />
            <Array as="points">
              <mxPoint x="440" y="400" />
              <mxPoint x="360" y="400" />
            </Array>
          </mxGeometry>
        </mxCell>
        <mxCell id="1e7CD2xe3Tzz0ckX28uI-47" value="переход в профиль пользователя" style="edgeLabel;html=1;align=center;verticalAlign=middle;resizable=0;points=[];" vertex="1" connectable="0" parent="1e7CD2xe3Tzz0ckX28uI-46">
          <mxGeometry x="0.1789" y="-1" relative="1" as="geometry">
            <mxPoint x="26" y="-9" as="offset" />
          </mxGeometry>
        </mxCell>
        <mxCell id="1e7CD2xe3Tzz0ckX28uI-48" value="выход из системы" style="edgeLabel;html=1;align=center;verticalAlign=middle;resizable=0;points=[];" vertex="1" connectable="0" parent="1">
          <mxGeometry x="380" y="80.99555555555554" as="geometry" />
        </mxCell>
        <mxCell id="1e7CD2xe3Tzz0ckX28uI-49" value="выход из системы" style="edgeLabel;html=1;align=center;verticalAlign=middle;resizable=0;points=[];" vertex="1" connectable="0" parent="1">
          <mxGeometry x="306" y="189.99555555555554" as="geometry" />
        </mxCell>
        <mxCell id="1e7CD2xe3Tzz0ckX28uI-50" style="edgeStyle=orthogonalEdgeStyle;rounded=0;orthogonalLoop=1;jettySize=auto;html=1;exitX=0.5;exitY=1;exitDx=0;exitDy=0;entryX=0;entryY=0.5;entryDx=0;entryDy=0;" edge="1" parent="1" source="1e7CD2xe3Tzz0ckX28uI-51" target="1e7CD2xe3Tzz0ckX28uI-56">
          <mxGeometry relative="1" as="geometry" />
        </mxCell>
        <mxCell id="1e7CD2xe3Tzz0ckX28uI-51" value="Анкета для изменения информации о пользователе" style="rounded=1;whiteSpace=wrap;html=1;" vertex="1" parent="1">
          <mxGeometry x="30" y="450" width="130" height="50" as="geometry" />
        </mxCell>
        <mxCell id="1e7CD2xe3Tzz0ckX28uI-52" value="" style="endArrow=classic;html=1;rounded=0;exitX=0;exitY=0.5;exitDx=0;exitDy=0;entryX=0.5;entryY=0;entryDx=0;entryDy=0;" edge="1" parent="1" source="1e7CD2xe3Tzz0ckX28uI-45" target="1e7CD2xe3Tzz0ckX28uI-51">
          <mxGeometry width="50" height="50" relative="1" as="geometry">
            <mxPoint x="300" y="370" as="sourcePoint" />
            <mxPoint x="187" y="430" as="targetPoint" />
            <Array as="points">
              <mxPoint x="270" y="455" />
              <mxPoint x="270" y="400" />
              <mxPoint x="95" y="400" />
            </Array>
          </mxGeometry>
        </mxCell>
        <mxCell id="1e7CD2xe3Tzz0ckX28uI-53" value="нажатие на кнопку редактировать профиль" style="edgeLabel;html=1;align=center;verticalAlign=middle;resizable=0;points=[];" vertex="1" connectable="0" parent="1e7CD2xe3Tzz0ckX28uI-52">
          <mxGeometry x="0.1789" y="-1" relative="1" as="geometry">
            <mxPoint x="26" y="-9" as="offset" />
          </mxGeometry>
        </mxCell>
        <mxCell id="1e7CD2xe3Tzz0ckX28uI-54" style="edgeStyle=orthogonalEdgeStyle;rounded=0;orthogonalLoop=1;jettySize=auto;html=1;exitX=0.5;exitY=1;exitDx=0;exitDy=0;entryX=0;entryY=0.5;entryDx=0;entryDy=0;" edge="1" parent="1" source="1e7CD2xe3Tzz0ckX28uI-56" target="1e7CD2xe3Tzz0ckX28uI-59">
          <mxGeometry relative="1" as="geometry" />
        </mxCell>
        <mxCell id="1e7CD2xe3Tzz0ckX28uI-55" style="edgeStyle=orthogonalEdgeStyle;rounded=0;orthogonalLoop=1;jettySize=auto;html=1;exitX=1;exitY=0.5;exitDx=0;exitDy=0;entryX=0;entryY=0.5;entryDx=0;entryDy=0;" edge="1" parent="1" source="1e7CD2xe3Tzz0ckX28uI-56" target="1e7CD2xe3Tzz0ckX28uI-61">
          <mxGeometry relative="1" as="geometry" />
        </mxCell>
        <mxCell id="1e7CD2xe3Tzz0ckX28uI-56" value="Проверка корректности заполнения полей" style="rounded=1;whiteSpace=wrap;html=1;" vertex="1" parent="1">
          <mxGeometry x="-140" y="598" width="110" height="45" as="geometry" />
        </mxCell>
        <mxCell id="1e7CD2xe3Tzz0ckX28uI-57" value="[все обязательные поля заполнены и&amp;nbsp;&lt;div&gt;все заполненные поля содержат допустимые символы&lt;span style=&quot;background-color: rgb(251, 251, 251); text-wrap: wrap;&quot;&gt;]&lt;/span&gt;&lt;/div&gt;" style="edgeLabel;html=1;align=center;verticalAlign=middle;resizable=0;points=[];" vertex="1" connectable="0" parent="1">
          <mxGeometry x="50" y="758.5" as="geometry" />
        </mxCell>
        <mxCell id="1e7CD2xe3Tzz0ckX28uI-58" style="edgeStyle=orthogonalEdgeStyle;rounded=0;orthogonalLoop=1;jettySize=auto;html=1;exitX=1;exitY=0.5;exitDx=0;exitDy=0;entryX=0.75;entryY=1;entryDx=0;entryDy=0;" edge="1" parent="1" source="1e7CD2xe3Tzz0ckX28uI-59">
          <mxGeometry relative="1" as="geometry">
            <mxPoint x="377.5" y="726.48" as="sourcePoint" />
            <mxPoint x="420" y="477.23" as="targetPoint" />
            <Array as="points">
              <mxPoint x="345" y="726" />
              <mxPoint x="430" y="726" />
              <mxPoint x="430" y="477" />
            </Array>
          </mxGeometry>
        </mxCell>
        <mxCell id="1e7CD2xe3Tzz0ckX28uI-59" value="Сохранение внесенных в профиль изменений" style="rounded=1;whiteSpace=wrap;html=1;" vertex="1" parent="1">
          <mxGeometry x="215" y="700" width="130" height="58.5" as="geometry" />
        </mxCell>
        <mxCell id="1e7CD2xe3Tzz0ckX28uI-60" style="edgeStyle=orthogonalEdgeStyle;rounded=0;orthogonalLoop=1;jettySize=auto;html=1;exitX=0.5;exitY=0;exitDx=0;exitDy=0;" edge="1" parent="1" source="1e7CD2xe3Tzz0ckX28uI-61" target="1e7CD2xe3Tzz0ckX28uI-45">
          <mxGeometry relative="1" as="geometry">
            <Array as="points">
              <mxPoint x="345" y="510" />
              <mxPoint x="345" y="510" />
            </Array>
          </mxGeometry>
        </mxCell>
        <mxCell id="1e7CD2xe3Tzz0ckX28uI-61" value="Ошибка заполнения информации о пользователе" style="rounded=1;whiteSpace=wrap;html=1;" vertex="1" parent="1">
          <mxGeometry x="275" y="594" width="140" height="53" as="geometry" />
        </mxCell>
        <mxCell id="1e7CD2xe3Tzz0ckX28uI-62" value="[не все обязательные поля заполнены или не&lt;div&gt;все заполненные поля содержат допустимые символы&lt;span style=&quot;background-color: rgb(251, 251, 251); text-wrap: wrap;&quot;&gt;]&lt;/span&gt;&lt;/div&gt;" style="edgeLabel;html=1;align=center;verticalAlign=middle;resizable=0;points=[];" vertex="1" connectable="0" parent="1">
          <mxGeometry x="120" y="602" as="geometry">
            <mxPoint y="-2" as="offset" />
          </mxGeometry>
        </mxCell>
        <mxCell id="1e7CD2xe3Tzz0ckX28uI-63" value="нажатие на кнопку сохранить изменения" style="edgeLabel;html=1;align=center;verticalAlign=middle;resizable=0;points=[];" vertex="1" connectable="0" parent="1">
          <mxGeometry x="-40.00333333333347" y="530" as="geometry" />
        </mxCell>
        <mxCell id="1e7CD2xe3Tzz0ckX28uI-64" value="&lt;font style=&quot;vertical-align: inherit;&quot;&gt;&lt;font style=&quot;vertical-align: inherit;&quot;&gt;&lt;font style=&quot;vertical-align: inherit;&quot;&gt;[все обязательные поля заполнены или&amp;nbsp;&lt;/font&gt;&lt;/font&gt;&lt;/font&gt;&lt;div&gt;&lt;font style=&quot;vertical-align: inherit;&quot;&gt;&lt;font style=&quot;vertical-align: inherit;&quot;&gt;&lt;font style=&quot;vertical-align: inherit;&quot;&gt;все заполненные поля&amp;nbsp;&lt;/font&gt;&lt;/font&gt;&lt;/font&gt;&lt;/div&gt;&lt;div&gt;&lt;font style=&quot;vertical-align: inherit;&quot;&gt;&lt;font style=&quot;vertical-align: inherit;&quot;&gt;&lt;font style=&quot;vertical-align: inherit;&quot;&gt;содержат допустимые символы]&lt;/font&gt;&lt;/font&gt;&lt;/font&gt;&lt;/div&gt;" style="edgeLabel;html=1;align=center;verticalAlign=middle;resizable=0;points=[];" vertex="1" connectable="0" parent="1">
          <mxGeometry x="610.0000616142418" y="620.4966666666666" as="geometry">
            <mxPoint x="-9" y="15" as="offset" />
          </mxGeometry>
        </mxCell>
        <mxCell id="1e7CD2xe3Tzz0ckX28uI-65" style="edgeStyle=orthogonalEdgeStyle;rounded=0;orthogonalLoop=1;jettySize=auto;html=1;exitX=0;exitY=0.5;exitDx=0;exitDy=0;entryX=0.313;entryY=1.006;entryDx=0;entryDy=0;entryPerimeter=0;" edge="1" parent="1" source="1e7CD2xe3Tzz0ckX28uI-68" target="1e7CD2xe3Tzz0ckX28uI-44">
          <mxGeometry relative="1" as="geometry">
            <Array as="points">
              <mxPoint x="481" y="855" />
            </Array>
            <mxPoint x="480" y="470" as="targetPoint" />
          </mxGeometry>
        </mxCell>
        <mxCell id="1e7CD2xe3Tzz0ckX28uI-68" value="&lt;font style=&quot;vertical-align: inherit;&quot;&gt;&lt;font style=&quot;vertical-align: inherit;&quot;&gt;Страница с информацией, что конференция создана&lt;/font&gt;&lt;/font&gt;" style="rounded=1;whiteSpace=wrap;html=1;" vertex="1" parent="1">
          <mxGeometry x="540" y="830" width="140" height="50" as="geometry" />
        </mxCell>
        <mxCell id="1e7CD2xe3Tzz0ckX28uI-72" value="&lt;font style=&quot;vertical-align: inherit;&quot;&gt;&lt;font style=&quot;vertical-align: inherit;&quot;&gt;нажать на кнопку&lt;/font&gt;&lt;/font&gt;&lt;div&gt;&lt;font style=&quot;vertical-align: inherit;&quot;&gt;&lt;font style=&quot;vertical-align: inherit;&quot;&gt;&amp;nbsp;вернуться&amp;nbsp;&lt;/font&gt;&lt;/font&gt;&lt;div&gt;&lt;font style=&quot;vertical-align: inherit;&quot;&gt;&lt;font style=&quot;vertical-align: inherit;&quot;&gt;н главную страницу&lt;/font&gt;&lt;/font&gt;&lt;/div&gt;&lt;/div&gt;" style="edgeLabel;html=1;align=center;verticalAlign=middle;resizable=0;points=[];" vertex="1" connectable="0" parent="1">
          <mxGeometry x="460.0000616142417" y="794.9966666666667" as="geometry" />
        </mxCell>
        <mxCell id="1e7CD2xe3Tzz0ckX28uI-73" value="Отображение анкеты для регистрации" style="rounded=1;whiteSpace=wrap;html=1;" vertex="1" parent="1">
          <mxGeometry x="90" y="150" width="130" height="50" as="geometry" />
        </mxCell>
        <mxCell id="1e7CD2xe3Tzz0ckX28uI-74" style="edgeStyle=orthogonalEdgeStyle;rounded=0;orthogonalLoop=1;jettySize=auto;html=1;exitX=1;exitY=0.5;exitDx=0;exitDy=0;entryX=0;entryY=0.5;entryDx=0;entryDy=0;" edge="1" parent="1" source="1e7CD2xe3Tzz0ckX28uI-75" target="1e7CD2xe3Tzz0ckX28uI-32">
          <mxGeometry relative="1" as="geometry" />
        </mxCell>
        <mxCell id="1e7CD2xe3Tzz0ckX28uI-75" value="Ошибка заполнения информации о пользователе" style="rounded=1;whiteSpace=wrap;html=1;" vertex="1" parent="1">
          <mxGeometry x="-90" y="27" width="140" height="53" as="geometry" />
        </mxCell>
        <mxCell id="1e7CD2xe3Tzz0ckX28uI-76" value="[логин свободен и все&lt;div&gt;&amp;nbsp;обязательные поля заполнены и&lt;/div&gt;&lt;div&gt;&amp;nbsp;все заполненные поля&amp;nbsp;&lt;/div&gt;&lt;div&gt;содержат допустимые символы]&lt;/div&gt;" style="edgeLabel;html=1;align=center;verticalAlign=middle;resizable=0;points=[];" vertex="1" connectable="0" parent="1">
          <mxGeometry x="150" y="250.00011111080244" as="geometry" />
        </mxCell>
        <mxCell id="1e7CD2xe3Tzz0ckX28uI-110" value="выход из системы" style="edgeLabel;html=1;align=center;verticalAlign=middle;resizable=0;points=[];" vertex="1" connectable="0" parent="1">
          <mxGeometry x="484" y="-59.00444444444446" as="geometry" />
        </mxCell>
        <mxCell id="1e7CD2xe3Tzz0ckX28uI-111" value="&lt;font style=&quot;vertical-align: inherit;&quot;&gt;&lt;font style=&quot;vertical-align: inherit;&quot;&gt;Страница с полем для ввода идентификатора для входа&lt;/font&gt;&lt;/font&gt;" style="rounded=1;whiteSpace=wrap;html=1;" vertex="1" parent="1">
          <mxGeometry x="670" y="220" width="130" height="55" as="geometry" />
        </mxCell>
        <mxCell id="1e7CD2xe3Tzz0ckX28uI-112" value="" style="endArrow=classic;html=1;rounded=0;exitX=1;exitY=0;exitDx=0;exitDy=0;entryX=0;entryY=0.5;entryDx=0;entryDy=0;" edge="1" parent="1" source="1e7CD2xe3Tzz0ckX28uI-44" target="1e7CD2xe3Tzz0ckX28uI-111">
          <mxGeometry width="50" height="50" relative="1" as="geometry">
            <mxPoint x="640" y="340" as="sourcePoint" />
            <mxPoint x="690" y="290" as="targetPoint" />
          </mxGeometry>
        </mxCell>
        <mxCell id="1e7CD2xe3Tzz0ckX28uI-113" value="&lt;font style=&quot;vertical-align: inherit;&quot;&gt;&lt;font style=&quot;vertical-align: inherit;&quot;&gt;нажатие кнопки для входа в конференцию&lt;/font&gt;&lt;/font&gt;" style="edgeLabel;html=1;align=center;verticalAlign=middle;resizable=0;points=[];" vertex="1" connectable="0" parent="1e7CD2xe3Tzz0ckX28uI-112">
          <mxGeometry x="-0.0895" y="1" relative="1" as="geometry">
            <mxPoint x="15" y="14" as="offset" />
          </mxGeometry>
        </mxCell>
        <mxCell id="1e7CD2xe3Tzz0ckX28uI-119" style="edgeStyle=orthogonalEdgeStyle;rounded=0;orthogonalLoop=1;jettySize=auto;html=1;exitX=0.5;exitY=1;exitDx=0;exitDy=0;entryX=0.5;entryY=0;entryDx=0;entryDy=0;" edge="1" parent="1" source="1e7CD2xe3Tzz0ckX28uI-114" target="1e7CD2xe3Tzz0ckX28uI-117">
          <mxGeometry relative="1" as="geometry" />
        </mxCell>
        <mxCell id="1e7CD2xe3Tzz0ckX28uI-120" value="&lt;font style=&quot;vertical-align: inherit;&quot;&gt;&lt;font style=&quot;vertical-align: inherit;&quot;&gt;конференция найдена&lt;/font&gt;&lt;/font&gt;" style="edgeLabel;html=1;align=center;verticalAlign=middle;resizable=0;points=[];" vertex="1" connectable="0" parent="1e7CD2xe3Tzz0ckX28uI-119">
          <mxGeometry x="-0.0339" y="-1" relative="1" as="geometry">
            <mxPoint as="offset" />
          </mxGeometry>
        </mxCell>
        <mxCell id="1e7CD2xe3Tzz0ckX28uI-121" style="edgeStyle=orthogonalEdgeStyle;rounded=0;orthogonalLoop=1;jettySize=auto;html=1;exitX=0.25;exitY=0;exitDx=0;exitDy=0;entryX=1;entryY=0.25;entryDx=0;entryDy=0;" edge="1" parent="1" source="1e7CD2xe3Tzz0ckX28uI-114">
          <mxGeometry relative="1" as="geometry">
            <mxPoint x="965" y="206.2" as="sourcePoint" />
            <mxPoint x="770" y="219.95" as="targetPoint" />
            <Array as="points">
              <mxPoint x="963" y="200" />
              <mxPoint x="770" y="200" />
            </Array>
          </mxGeometry>
        </mxCell>
        <mxCell id="1e7CD2xe3Tzz0ckX28uI-122" value="&lt;font style=&quot;vertical-align: inherit;&quot;&gt;&lt;font style=&quot;vertical-align: inherit;&quot;&gt;конференция не найдена&lt;/font&gt;&lt;/font&gt;" style="edgeLabel;html=1;align=center;verticalAlign=middle;resizable=0;points=[];" vertex="1" connectable="0" parent="1e7CD2xe3Tzz0ckX28uI-121">
          <mxGeometry x="0.2488" y="2" relative="1" as="geometry">
            <mxPoint x="23" y="-2" as="offset" />
          </mxGeometry>
        </mxCell>
        <mxCell id="1e7CD2xe3Tzz0ckX28uI-114" value="&lt;font style=&quot;vertical-align: inherit;&quot;&gt;&lt;font style=&quot;vertical-align: inherit;&quot;&gt;Поиск конференции&amp;nbsp;&lt;/font&gt;&lt;/font&gt;" style="rounded=1;whiteSpace=wrap;html=1;" vertex="1" parent="1">
          <mxGeometry x="950" y="220" width="130" height="50" as="geometry" />
        </mxCell>
        <mxCell id="1e7CD2xe3Tzz0ckX28uI-115" value="" style="endArrow=classic;html=1;rounded=0;exitX=1;exitY=0.5;exitDx=0;exitDy=0;entryX=0;entryY=0.5;entryDx=0;entryDy=0;" edge="1" parent="1" source="1e7CD2xe3Tzz0ckX28uI-111" target="1e7CD2xe3Tzz0ckX28uI-114">
          <mxGeometry width="50" height="50" relative="1" as="geometry">
            <mxPoint x="960" y="340" as="sourcePoint" />
            <mxPoint x="1010" y="290" as="targetPoint" />
          </mxGeometry>
        </mxCell>
        <mxCell id="1e7CD2xe3Tzz0ckX28uI-116" value="&lt;font style=&quot;vertical-align: inherit;&quot;&gt;&lt;font style=&quot;vertical-align: inherit;&quot;&gt;введен идентификатор&amp;nbsp;&lt;/font&gt;&lt;/font&gt;" style="edgeLabel;html=1;align=center;verticalAlign=middle;resizable=0;points=[];" vertex="1" connectable="0" parent="1e7CD2xe3Tzz0ckX28uI-115">
          <mxGeometry x="-0.2084" y="1" relative="1" as="geometry">
            <mxPoint x="11" y="2" as="offset" />
          </mxGeometry>
        </mxCell>
        <mxCell id="1e7CD2xe3Tzz0ckX28uI-124" style="edgeStyle=orthogonalEdgeStyle;rounded=0;orthogonalLoop=1;jettySize=auto;html=1;exitX=0.5;exitY=1;exitDx=0;exitDy=0;entryX=0.5;entryY=0;entryDx=0;entryDy=0;" edge="1" parent="1" source="1e7CD2xe3Tzz0ckX28uI-117" target="1e7CD2xe3Tzz0ckX28uI-123">
          <mxGeometry relative="1" as="geometry" />
        </mxCell>
        <mxCell id="1e7CD2xe3Tzz0ckX28uI-125" value="&lt;font style=&quot;vertical-align: inherit;&quot;&gt;&lt;font style=&quot;vertical-align: inherit;&quot;&gt;включить/выключить звук/видео&lt;/font&gt;&lt;/font&gt;" style="edgeLabel;html=1;align=center;verticalAlign=middle;resizable=0;points=[];" vertex="1" connectable="0" parent="1e7CD2xe3Tzz0ckX28uI-124">
          <mxGeometry x="-0.0456" y="-2" relative="1" as="geometry">
            <mxPoint as="offset" />
          </mxGeometry>
        </mxCell>
        <mxCell id="1e7CD2xe3Tzz0ckX28uI-117" value="&lt;font style=&quot;vertical-align: inherit;&quot;&gt;&lt;font style=&quot;vertical-align: inherit;&quot;&gt;страница перед входом в конференцию&lt;/font&gt;&lt;/font&gt;" style="rounded=1;whiteSpace=wrap;html=1;" vertex="1" parent="1">
          <mxGeometry x="950" y="400" width="130" height="50" as="geometry" />
        </mxCell>
        <mxCell id="1e7CD2xe3Tzz0ckX28uI-128" style="edgeStyle=orthogonalEdgeStyle;rounded=0;orthogonalLoop=1;jettySize=auto;html=1;exitX=1;exitY=0.5;exitDx=0;exitDy=0;entryX=0;entryY=0.5;entryDx=0;entryDy=0;" edge="1" parent="1" source="1e7CD2xe3Tzz0ckX28uI-123" target="1e7CD2xe3Tzz0ckX28uI-126">
          <mxGeometry relative="1" as="geometry">
            <Array as="points">
              <mxPoint x="1260" y="537" />
            </Array>
          </mxGeometry>
        </mxCell>
        <mxCell id="1e7CD2xe3Tzz0ckX28uI-129" value="&lt;font style=&quot;vertical-align: inherit;&quot;&gt;&lt;font style=&quot;vertical-align: inherit;&quot;&gt;&lt;font style=&quot;vertical-align: inherit;&quot;&gt;&lt;font style=&quot;vertical-align: inherit;&quot;&gt;&lt;font style=&quot;vertical-align: inherit;&quot;&gt;&lt;font style=&quot;vertical-align: inherit;&quot;&gt;нажатие кнопки включения&amp;nbsp;&lt;/font&gt;&lt;/font&gt;&lt;/font&gt;&lt;/font&gt;&lt;/font&gt;&lt;/font&gt;&lt;div&gt;&lt;font style=&quot;vertical-align: inherit;&quot;&gt;&lt;font style=&quot;vertical-align: inherit;&quot;&gt;&lt;font style=&quot;vertical-align: inherit;&quot;&gt;&lt;font style=&quot;vertical-align: inherit;&quot;&gt;экран экрана&lt;/font&gt;&lt;/font&gt;&lt;/font&gt;&lt;/font&gt;&lt;/div&gt;" style="edgeLabel;html=1;align=center;verticalAlign=middle;resizable=0;points=[];" vertex="1" connectable="0" parent="1e7CD2xe3Tzz0ckX28uI-128">
          <mxGeometry x="-0.1333" y="2" relative="1" as="geometry">
            <mxPoint y="2" as="offset" />
          </mxGeometry>
        </mxCell>
        <mxCell id="1e7CD2xe3Tzz0ckX28uI-133" style="edgeStyle=orthogonalEdgeStyle;rounded=0;orthogonalLoop=1;jettySize=auto;html=1;exitX=0;exitY=0.5;exitDx=0;exitDy=0;entryX=0.5;entryY=0;entryDx=0;entryDy=0;" edge="1" parent="1" source="1e7CD2xe3Tzz0ckX28uI-123" target="1e7CD2xe3Tzz0ckX28uI-132">
          <mxGeometry relative="1" as="geometry" />
        </mxCell>
        <mxCell id="1e7CD2xe3Tzz0ckX28uI-134" value="&lt;font style=&quot;vertical-align: inherit;&quot;&gt;&lt;font style=&quot;vertical-align: inherit;&quot;&gt;&lt;font style=&quot;vertical-align: inherit;&quot;&gt;&lt;font style=&quot;vertical-align: inherit;&quot;&gt;&lt;font style=&quot;vertical-align: inherit;&quot;&gt;&lt;font style=&quot;vertical-align: inherit;&quot;&gt;&lt;font style=&quot;vertical-align: inherit;&quot;&gt;&lt;font style=&quot;vertical-align: inherit;&quot;&gt;нажатые кнопки&amp;nbsp;&lt;/font&gt;&lt;/font&gt;&lt;/font&gt;&lt;/font&gt;&lt;/font&gt;&lt;/font&gt;&lt;/font&gt;&lt;/font&gt;&lt;div&gt;&lt;font style=&quot;vertical-align: inherit;&quot;&gt;&lt;font style=&quot;vertical-align: inherit;&quot;&gt;&lt;font style=&quot;vertical-align: inherit;&quot;&gt;&lt;font style=&quot;vertical-align: inherit;&quot;&gt;&lt;font style=&quot;vertical-align: inherit;&quot;&gt;&lt;font style=&quot;vertical-align: inherit;&quot;&gt;записать конференцию&lt;/font&gt;&lt;/font&gt;&lt;/font&gt;&lt;/font&gt;&lt;/font&gt;&lt;/font&gt;&lt;/div&gt;" style="edgeLabel;html=1;align=center;verticalAlign=middle;resizable=0;points=[];" vertex="1" connectable="0" parent="1e7CD2xe3Tzz0ckX28uI-133">
          <mxGeometry x="0.108" relative="1" as="geometry">
            <mxPoint x="-7" as="offset" />
          </mxGeometry>
        </mxCell>
        <mxCell id="1e7CD2xe3Tzz0ckX28uI-139" style="edgeStyle=orthogonalEdgeStyle;rounded=0;orthogonalLoop=1;jettySize=auto;html=1;exitX=0;exitY=0;exitDx=0;exitDy=0;entryX=1;entryY=0.5;entryDx=0;entryDy=0;" edge="1" parent="1">
          <mxGeometry relative="1" as="geometry">
            <mxPoint x="950" y="527" as="sourcePoint" />
            <mxPoint x="570" y="360" as="targetPoint" />
            <Array as="points">
              <mxPoint x="860" y="527" />
              <mxPoint x="860" y="360" />
            </Array>
          </mxGeometry>
        </mxCell>
        <mxCell id="1e7CD2xe3Tzz0ckX28uI-140" value="&lt;font style=&quot;vertical-align: inherit;&quot;&gt;&lt;font style=&quot;vertical-align: inherit;&quot;&gt;нажатие кнопки завершить конференцию&lt;/font&gt;&lt;/font&gt;" style="edgeLabel;html=1;align=center;verticalAlign=middle;resizable=0;points=[];" vertex="1" connectable="0" parent="1e7CD2xe3Tzz0ckX28uI-139">
          <mxGeometry x="0.1013" y="-3" relative="1" as="geometry">
            <mxPoint as="offset" />
          </mxGeometry>
        </mxCell>
        <mxCell id="1e7CD2xe3Tzz0ckX28uI-123" value="&lt;font style=&quot;vertical-align: inherit;&quot;&gt;&lt;font style=&quot;vertical-align: inherit;&quot;&gt;страница с конференцией&lt;/font&gt;&lt;/font&gt;" style="rounded=1;whiteSpace=wrap;html=1;" vertex="1" parent="1">
          <mxGeometry x="950" y="512" width="130" height="50" as="geometry" />
        </mxCell>
        <mxCell id="1e7CD2xe3Tzz0ckX28uI-126" value="&lt;font style=&quot;vertical-align: inherit;&quot;&gt;&lt;font style=&quot;vertical-align: inherit;&quot;&gt;Выбор того, что будет демонстрироваться (определенное окно, весь экран)&lt;/font&gt;&lt;/font&gt;" style="rounded=1;whiteSpace=wrap;html=1;" vertex="1" parent="1">
          <mxGeometry x="1270" y="503" width="130" height="68" as="geometry" />
        </mxCell>
        <mxCell id="1e7CD2xe3Tzz0ckX28uI-130" style="edgeStyle=orthogonalEdgeStyle;rounded=0;orthogonalLoop=1;jettySize=auto;html=1;exitX=0.25;exitY=1;exitDx=0;exitDy=0;entryX=0.691;entryY=1.008;entryDx=0;entryDy=0;entryPerimeter=0;" edge="1" parent="1" source="1e7CD2xe3Tzz0ckX28uI-126" target="1e7CD2xe3Tzz0ckX28uI-123">
          <mxGeometry relative="1" as="geometry" />
        </mxCell>
        <mxCell id="1e7CD2xe3Tzz0ckX28uI-131" value="&lt;font style=&quot;vertical-align: inherit;&quot;&gt;&lt;font style=&quot;vertical-align: inherit;&quot;&gt;выбран объект демонстрации&lt;/font&gt;&lt;/font&gt;" style="edgeLabel;html=1;align=center;verticalAlign=middle;resizable=0;points=[];" vertex="1" connectable="0" parent="1e7CD2xe3Tzz0ckX28uI-130">
          <mxGeometry x="0.0367" y="-1" relative="1" as="geometry">
            <mxPoint as="offset" />
          </mxGeometry>
        </mxCell>
        <mxCell id="1e7CD2xe3Tzz0ckX28uI-132" value="&lt;font style=&quot;vertical-align: inherit;&quot;&gt;&lt;font style=&quot;vertical-align: inherit;&quot;&gt;Страница с вариантами сохранения записи&lt;/font&gt;&lt;/font&gt;" style="rounded=1;whiteSpace=wrap;html=1;" vertex="1" parent="1">
          <mxGeometry x="810" y="620.5" width="130" height="50" as="geometry" />
        </mxCell>
        <mxCell id="1e7CD2xe3Tzz0ckX28uI-135" style="edgeStyle=orthogonalEdgeStyle;rounded=0;orthogonalLoop=1;jettySize=auto;html=1;exitX=1;exitY=0.25;exitDx=0;exitDy=0;entryX=0.106;entryY=1.008;entryDx=0;entryDy=0;entryPerimeter=0;" edge="1" parent="1" source="1e7CD2xe3Tzz0ckX28uI-132" target="1e7CD2xe3Tzz0ckX28uI-123">
          <mxGeometry relative="1" as="geometry" />
        </mxCell>
        <mxCell id="1e7CD2xe3Tzz0ckX28uI-136" value="&lt;font style=&quot;vertical-align: inherit;&quot;&gt;&lt;font style=&quot;vertical-align: inherit;&quot;&gt;выбран способ сохранения&lt;/font&gt;&lt;/font&gt;" style="edgeLabel;html=1;align=center;verticalAlign=middle;resizable=0;points=[];" vertex="1" connectable="0" parent="1e7CD2xe3Tzz0ckX28uI-135">
          <mxGeometry x="-0.0061" y="1" relative="1" as="geometry">
            <mxPoint as="offset" />
          </mxGeometry>
        </mxCell>
      </root>
    </mxGraphModel>
  </diagram>
</mxfile>
